<svg width="33" height="32" viewBox="0 0 33 32" fill="none" xmlns="http://www.w3.org/2000/svg">
<path d="M16.5 7C17.0523 7 17.5 7.44772 17.5 8V15H24.5C25.0523 15 25.5 15.4477 25.5 16C25.5 16.5523 25.0523 17 24.5 17H17.5V24C17.5 24.5523 17.0523 25 16.5 25C15.9477 25 15.5 24.5523 15.5 24V17H8.5C7.94772 17 7.5 16.5523 7.5 16C7.5 15.4477 7.94772 15 8.5 15H15.5V8C15.5 7.44772 15.9477 7 16.5 7Z" fill="#919191"/>
<path fill-rule="evenodd" clip-rule="evenodd" d="M16.5 32C25.3366 32 32.5 24.8366 32.5 16C32.5 7.16344 25.3366 0 16.5 0C7.66344 0 0.5 7.16344 0.5 16C0.5 24.8366 7.66344 32 16.5 32ZM16.5 30C24.232 30 30.5 23.732 30.5 16C30.5 8.26801 24.232 2 16.5 2C8.76801 2 2.5 8.26801 2.5 16C2.5 23.732 8.76801 30 16.5 30Z" fill="#919191"/>
</svg>
