<svg width="33" height="32" viewBox="0 0 33 32" fill="none" xmlns="http://www.w3.org/2000/svg">
<path fill-rule="evenodd" clip-rule="evenodd" d="M27.4384 22.7668C29.4977 20.5503 30.7 17.7266 30.7 14.6787C30.7 7.93374 24.6599 2.06419 16.7 2.06419C8.74 2.06419 2.69995 7.93374 2.69995 14.6787C2.69995 21.4236 8.74 27.2932 16.7 27.2932C18.3745 27.2932 19.9749 27.0284 21.4555 26.5458C22.2839 26.2758 23.2223 26.371 24.0051 26.888L27.0568 28.9038L26.6108 25.3366C26.4885 24.3587 26.8274 23.4245 27.4384 22.7668ZM28.882 24.1954C28.6645 24.4296 28.5541 24.7507 28.5944 25.0724L29.3146 30.8333C29.4233 31.7026 28.499 32.3072 27.7838 31.8347L22.9269 28.6266C22.6689 28.4561 22.3499 28.4189 22.0578 28.5142C20.3827 29.0602 18.5792 29.3574 16.7 29.3574C7.86339 29.3574 0.699951 22.7855 0.699951 14.6787C0.699951 6.57187 7.86339 0 16.7 0C25.5365 0 32.7 6.57187 32.7 14.6787C32.7 18.3097 31.2629 21.6328 28.882 24.1954Z" fill="#919191"/>
</svg>
