<svg width="27" height="32" viewBox="0 0 27 32" fill="none" xmlns="http://www.w3.org/2000/svg">
<path fill-rule="evenodd" clip-rule="evenodd" d="M13.3879 19.1025C12.8962 18.5926 12.7109 17.8605 12.9009 17.178C13.0492 16.6453 13.2122 16.1013 13.3777 15.5495C14.0663 13.2524 14.7959 10.8186 14.671 8.48701C14.5988 7.13769 14.2317 5.96136 13.4393 4.96777C13.1231 4.57133 12.7172 4.17634 12.1937 3.79909C12.2117 3.97222 12.2204 4.14556 12.219 4.31924C12.2058 5.90692 11.3663 7.0217 10.5465 7.85781C10.0351 8.3794 9.48951 8.85508 8.90526 9.3645C7.53904 10.5557 5.96119 11.9315 4.11344 14.5104C1.56504 18.0671 1.61524 21.896 3.26074 24.8337C4.92076 27.7973 8.29254 30 12.7019 30C19.3378 30 22.9501 26.1683 23.8637 22.2549C24.6475 18.8975 23.5108 15.5025 20.4566 13.7892C20.1647 16.5606 18.143 18.9769 15.2935 19.6593C14.6045 19.8243 13.8797 19.6125 13.3879 19.1025ZM20.0591 11.4052C20.0591 11.4052 20.2952 11.497 20.298 11.4981C30.2299 15.5006 27.2258 32 12.7019 32C2.48761 32 -3.5086 21.7143 2.48768 13.3455C4.47871 10.5667 6.35131 8.93041 7.7548 7.70406C9.84123 5.88094 10.8909 4.96373 9.75172 2.54536C9.71286 2.46287 9.67145 2.37863 9.62745 2.29255C9.49032 2.02426 9.32801 1.73808 9.13913 1.43111C9.07299 1.32361 9.00359 1.21357 8.93087 1.10085C8.68066 0.71302 9.0258 0.209741 9.46763 0.343151C9.61311 0.387076 9.75587 0.432111 9.89596 0.478228M9.89596 0.478228C14.844 2.60487 16.9973 6.82978 16.599 10.5045C16.5394 11.0552 16.4513 11.6045 16.3444 12.1467C16.1422 13.1719 15.8725 14.1717 15.5995 15.108C15.4831 15.5074 15.3661 15.8952 15.2534 16.2685C15.099 16.7803 14.9528 17.2648 14.8277 17.7143C15.8704 17.4646 16.7535 16.8867 17.3913 16.1175C18.2924 15.0309 18.704 13.5627 18.3845 12.099C18.368 12.0236 18.3497 11.9482 18.3293 11.8729C18.2599 11.6162 18.35 11.3689 18.5226 11.2176C18.667 11.091 18.869 11.0317 19.0835 11.0903C19.4211 11.1826 19.7463 11.2878 20.0591 11.4052" fill="#919191"/>
</svg>
