<svg width="29" height="28" viewBox="0 0 29 28" fill="none" xmlns="http://www.w3.org/2000/svg">
<path d="M1.30005 11.4741C1.30005 10.471 1.80135 9.53432 2.63595 8.97792L12.6359 2.31125C13.6436 1.63945 14.9565 1.63945 15.9642 2.31125L25.9641 8.97792C26.7987 9.53432 27.3 10.471 27.3 11.4741V26C27.3 26.5523 26.8523 27 26.3 27H21.3C20.7478 27 20.3 26.5523 20.3 26V20.6667C20.3 19.0098 18.9569 17.6667 17.3 17.6667H14.3H11.3C9.6432 17.6667 8.30005 19.0098 8.30005 20.6667V26C8.30005 26.5523 7.85233 27 7.30005 27H2.30005C1.74776 27 1.30005 26.5523 1.30005 26V11.4741Z" fill="#EE6A57" stroke="#EE6A57" stroke-width="2"/>
</svg>
