<svg width="24" height="29" viewBox="0 0 24 29" fill="none" xmlns="http://www.w3.org/2000/svg">
<path fill-rule="evenodd" clip-rule="evenodd" d="M11.0845 3.18729C11.0422 3.08378 11.019 2.97053 11.019 2.85185V1.66666C11.019 1.17574 11.417 0.777771 11.9079 0.777771C12.3988 0.777771 12.7968 1.17574 12.7968 1.66666V2.85185C12.7968 2.97053 12.7735 3.08379 12.7313 3.1873C18.4083 3.73649 21.8585 9.92111 21.8585 15.4661L23.0707 18.6272C24.0945 20.9693 22.3785 23.5923 19.8224 23.5923H19.6558C18.7678 26.6594 15.6356 28.9256 11.9079 28.9256C8.1802 28.9256 5.048 26.6594 4.15991 23.5923H3.99332C1.43722 23.5923 -0.278793 20.9693 0.745074 18.6272L1.9572 15.4661C1.9572 9.9211 5.40745 3.73647 11.0845 3.18729ZM20.0808 15.7952V15.4661C20.0808 12.9161 19.2411 10.2083 17.7589 8.17667C16.2932 6.16769 14.2946 4.92563 11.9079 4.92563C9.5211 4.92563 7.52249 6.16769 6.05682 8.17667C4.57467 10.2083 3.73497 12.9161 3.73497 15.4661V15.7952L2.39037 19.3019L2.374 19.3393C1.86358 20.5069 2.71905 21.8145 3.99332 21.8145H19.8224C21.0967 21.8145 21.9521 20.5069 21.4417 19.3393L21.4254 19.3019L20.0808 15.7952ZM11.9079 27.1479C9.07458 27.1479 6.88136 25.5846 6.04901 23.5923H17.7667C16.9344 25.5846 14.7412 27.1479 11.9079 27.1479Z" fill="#919191"/>
</svg>
