<svg width="33" height="32" viewBox="0 0 33 32" fill="none" xmlns="http://www.w3.org/2000/svg">
<path fill-rule="evenodd" clip-rule="evenodd" d="M26.9001 14C26.9001 20.6274 21.5276 26 14.9001 26C8.27273 26 2.90015 20.6274 2.90015 14C2.90015 7.37258 8.27273 2 14.9001 2C21.5276 2 26.9001 7.37258 26.9001 14ZM24.0674 24.5815C21.6113 26.7112 18.4062 28 14.9001 28C7.16816 28 0.900146 21.732 0.900146 14C0.900146 6.26801 7.16816 0 14.9001 0C22.6321 0 28.9001 6.26801 28.9001 14C28.9001 17.5061 27.6113 20.7111 25.4816 23.1673L32.6073 30.2929C32.9978 30.6834 32.9978 31.3166 32.6073 31.7071C32.2167 32.0976 31.5836 32.0976 31.193 31.7071L24.0674 24.5815Z" fill="#919191"/>
</svg>
